<?xml version="1.0" encoding="utf-8"?>
<!-- Generator: Adobe Illustrator 22.0.0, SVG Export Plug-In . SVG Version: 6.00 Build 0)  -->
<svg version="1.1" id="Layer_1" xmlns="http://www.w3.org/2000/svg" xmlns:xlink="http://www.w3.org/1999/xlink" x="0px" y="0px"
	 viewBox="0 0 177.6 162.9" style="enable-background:new 0 0 177.6 162.9;" xml:space="preserve">
<style type="text/css">
	.st0{clip-path:url(#SVGID_2_);}
	.st1{clip-path:url(#SVGID_4_);fill:url(#SVGID_5_);}
	.st2{clip-path:url(#SVGID_7_);}
	.st3{clip-path:url(#SVGID_9_);fill:url(#SVGID_10_);}
	.st4{fill:#FFFFFF;}
</style>
<g>
	<g>
		<defs>
			<rect id="SVGID_1_" x="0.3" y="0.1" width="122.2" height="162.5"/>
		</defs>
		<clipPath id="SVGID_2_">
			<use xlink:href="#SVGID_1_"  style="overflow:visible;"/>
		</clipPath>
		<g class="st0">
			<defs>
				<path id="SVGID_3_" d="M105.7,4.6c-15-8.7-34-4.4-43.9,9.3c-0.7,0.9-1.3,1.9-1.9,2.9c-5.1,8.8-5.7,19.1-2.6,28
					c0.2,0.4,0.3,0.8,0.5,1.2c3.6,10.1,2.9,21.6-2.9,31.6C49.2,87.7,39.6,94,29,95.9c-0.4,0.1-0.9,0.1-1.3,0.2
					c-9.3,1.7-17.8,7.4-23,16.2c-3.1,5.4-4.5,11.2-4.5,17c0.1,11.5,6.1,22.6,16.8,28.8c10.7,6.2,23.3,5.8,33.3,0.1
					c5-2.9,9.4-7,12.5-12.4c5.1-8.8,5.7-19,2.6-28c-0.2-0.4-0.3-0.8-0.5-1.2c-3.6-10.1-2.9-21.6,2.9-31.6
					c5.8-10,15.4-16.3,25.9-18.3c0.4-0.1,0.9-0.1,1.3-0.2c9.3-1.7,17.8-7.4,23-16.2c0.6-1,1.1-2.1,1.6-3.1
					C126.5,31.9,120.8,13.3,105.7,4.6"/>
			</defs>
			<clipPath id="SVGID_4_">
				<use xlink:href="#SVGID_3_"  style="overflow:visible;"/>
			</clipPath>
			
				<linearGradient id="SVGID_5_" gradientUnits="userSpaceOnUse" x1="-27.9943" y1="150.6926" x2="-24.936" y2="150.6926" gradientTransform="matrix(46.0234 -26.5716 -26.5716 -46.0234 5283.5361 6313.4932)">
				<stop  offset="0" style="stop-color:#007598"/>
				<stop  offset="0.1538" style="stop-color:#157FA0"/>
				<stop  offset="0.4707" style="stop-color:#4C97B5"/>
				<stop  offset="0.6604" style="stop-color:#70A7C3"/>
				<stop  offset="1" style="stop-color:#70A7C3"/>
			</linearGradient>
			<polygon class="st1" points="-72.6,38.1 95,-58.7 199.4,122.2 31.8,219 			"/>
		</g>
	</g>
</g>
<g>
	<g>
		<defs>
			<rect id="SVGID_6_" x="55.4" y="0.1" width="122.2" height="162.5"/>
		</defs>
		<clipPath id="SVGID_7_">
			<use xlink:href="#SVGID_6_"  style="overflow:visible;"/>
		</clipPath>
		<g class="st2">
			<defs>
				<path id="SVGID_8_" d="M174.7,115.5c-0.5-1.1-1-2.1-1.6-3.1c-5.1-8.8-13.6-14.5-23-16.2c-0.4-0.1-0.9-0.1-1.3-0.2
					c-10.5-1.9-20.1-8.3-25.9-18.3c-5.8-10-6.4-21.5-2.9-31.6c0.1-0.4,0.3-0.8,0.5-1.2c3.2-8.9,2.5-19.1-2.6-28
					c-3.1-5.4-7.5-9.6-12.5-12.4c-10-5.7-22.7-6-33.3,0.1c-10.7,6.2-16.7,17.3-16.8,28.8c0,5.8,1.4,11.7,4.5,17
					c5.1,8.8,13.6,14.5,23,16.2c0.4,0.1,0.9,0.1,1.3,0.2c10.5,1.9,20.1,8.3,25.9,18.2c5.8,10,6.4,21.5,2.9,31.6
					c-0.1,0.4-0.3,0.8-0.5,1.2c-3.2,8.9-2.5,19.1,2.6,28c0.6,1,1.2,2,1.9,2.9c10,13.7,28.9,18,43.9,9.3
					C175.8,149.5,181.6,131,174.7,115.5"/>
			</defs>
			<clipPath id="SVGID_9_">
				<use xlink:href="#SVGID_8_"  style="overflow:visible;"/>
			</clipPath>
			
				<linearGradient id="SVGID_10_" gradientUnits="userSpaceOnUse" x1="-27.9995" y1="150.9953" x2="-24.9412" y2="150.9953" gradientTransform="matrix(-40.1249 -40.1249 -40.1249 40.1249 5113.3906 -7039.7549)">
				<stop  offset="0" style="stop-color:#D97D75"/>
				<stop  offset="0.2439" style="stop-color:#E28D8A"/>
				<stop  offset="0.6846" style="stop-color:#F5B1BA"/>
				<stop  offset="1" style="stop-color:#F5B1BA"/>
			</linearGradient>
			<polygon class="st3" points="118.5,230 -28.9,82.7 118.5,-64.7 265.8,82.7 			"/>
		</g>
	</g>
</g>
<path class="st4" d="M44.6,129.2c0,6-4.8,10.8-10.8,10.8c-6,0-10.8-4.8-10.8-10.8c0-6,4.8-10.8,10.8-10.8
	C39.7,118.4,44.6,123.3,44.6,129.2"/>
<path class="st4" d="M155.6,129.2c0,6-4.8,10.8-10.8,10.8c-6,0-10.8-4.8-10.8-10.8c0-6,4.8-10.8,10.8-10.8
	C150.7,118.4,155.6,123.3,155.6,129.2"/>
<path class="st4" d="M99.7,33.5c0,6-4.8,10.8-10.8,10.8c-6,0-10.8-4.8-10.8-10.8c0-6,4.8-10.8,10.8-10.8
	C94.9,22.7,99.7,27.5,99.7,33.5"/>
</svg>
